<svg xmlns="http://www.w3.org/2000/svg" width="24.114" height="18.828" viewBox="0 0 24.114 18.828">
  <g id="eye-close" transform="translate(1.075 1.414)">
    <path id="ic_remove_red_eye_24px" d="M11.982,4.5a11.807,11.807,0,0,1,10.982,7.488A11.8,11.8,0,0,1,1,11.988,11.807,11.807,0,0,1,11.982,4.5Zm0,10.483C10.325,14.983,8.987,13.645,11.982,14.983Z" transform="translate(-1 -3.475)" fill="none" stroke="#ffffff" stroke-width="2"/>
    <line id="Linha_92" data-name="Linha 92" y1="16" x2="16" transform="translate(2.697 0)" fill="none" stroke="#ffffff" stroke-linecap="round" stroke-width="2"/>
    <path id="ic_remove_red_eye_24px-2" data-name="ic_remove_red_eye_24px" d="M.852,0C.413,0,.341,1.866.146,4.279c-.2,2.481-.355,5.7.706,5.7A4.992,4.992,0,1,0,.852,0Zm0,7.987V2a3,3,0,1,1,0,5.99Z" transform="matrix(0.719, 0.695, -0.695, 0.719, 14.493, 3.979)" fill="none" stroke="#ffffff" stroke-width="2"/>
    <path id="Caminho_7478" data-name="Caminho 7478" d="M0,16" transform="translate(16.697 -16)" fill="none" stroke="#ffffff" stroke-linecap="round" stroke-width="1"/>
  </g>
</svg>
