<svg width="33" height="33" viewBox="0 0 33 33" fill="none" xmlns="http://www.w3.org/2000/svg">
<path d="M32.2894 8.00763L24.9874 0.705598C24.4171 0.135243 23.4924 0.135243 22.9221 0.705598C22.3517 1.27595 22.3517 2.20054 22.9221 2.7709L27.7311 7.57998H2.04857C1.24201 7.57998 0.588135 8.23385 0.588135 9.0404C0.588135 9.84696 1.24201 10.5008 2.04857 10.5008H27.7311L22.9221 15.3099C22.3518 15.8802 22.3518 16.8049 22.9221 17.3751C23.2072 17.6603 23.581 17.8029 23.9547 17.8029C24.3285 17.8029 24.7023 17.6604 24.9873 17.3751L32.2894 10.073C32.8598 9.50264 32.8598 8.57798 32.2894 8.00763Z" fill="#A2A2A2"/>
<path d="M31.2569 22.184H5.57434L10.3833 17.3749C10.9536 16.8046 10.9536 15.88 10.3833 15.3096C9.81307 14.7393 8.88835 14.7393 8.318 15.3096L1.0159 22.6117C0.445546 23.182 0.445546 24.1066 1.0159 24.6769L8.31793 31.979C8.6032 32.2643 8.97689 32.4069 9.35064 32.4069C9.72439 32.4069 10.0982 32.2643 10.3832 31.979C10.9536 31.4087 10.9536 30.484 10.3832 29.9137L5.57428 25.1048H31.2569C32.0634 25.1048 32.7173 24.4509 32.7173 23.6443C32.7173 22.8379 32.0634 22.184 31.2569 22.184Z" fill="#A2A2A2"/>
</svg>
