<svg width="39" height="39" viewBox="0 0 39 39" fill="none" xmlns="http://www.w3.org/2000/svg">
<path d="M38.5653 0.784668H18.2668L13.1469 5.90458V6.05411H5.57633L0.456421 11.174V38.8936H25.8748V33.6242H38.5653V0.784668ZM19.0072 3.20213V6.64503H15.5644L19.0072 3.20213ZM6.3167 8.4715V11.9144H2.87388L6.3167 8.4715ZM23.6419 36.6606H2.68936V14.1473H8.54965V8.28706H13.1469V16.3803H5.90234V18.6132H13.1469V20.8462H5.90234V23.0791H13.1469V25.312H5.90234V27.545H13.1469V33.6241H23.6419L23.6419 36.6606ZM36.3324 31.3912H15.3798V8.87797H21.2401V3.01761H36.3324V31.3912Z" fill="#A2A2A2"/>
<path d="M18.5929 11.1108H33.1194V13.3438H18.5929V11.1108Z" fill="#A2A2A2"/>
<path d="M18.5929 15.5767H33.1194V17.8096H18.5929V15.5767Z" fill="#A2A2A2"/>
<path d="M18.5929 20.0425H33.1194V22.2755H18.5929V20.0425Z" fill="#A2A2A2"/>
</svg>
