<svg width="22" height="30" viewBox="0 0 22 30" fill="none" xmlns="http://www.w3.org/2000/svg">
<path d="M19.4682 12.6762H18.9066V7.70571C18.9899 3.58217 15.3622 -0.0516827 11.2348 0.0339544C6.99975 0.0385759 3.56769 3.47063 3.56307 7.70571V12.6762H3.00147C1.75159 12.6776 0.738705 13.6905 0.737305 14.9404V27.3488C0.738703 28.5987 1.75159 29.6116 3.00147 29.613H19.4682C20.718 29.6115 21.7308 28.5987 21.7323 27.3488V14.9404C21.7308 13.6906 20.718 12.6777 19.4682 12.6762ZM4.45248 7.70571C4.45668 3.96166 7.49078 0.927562 11.2348 0.92336C14.8839 0.847125 18.0914 4.05991 18.0172 7.70571V12.6762H16.8737V7.70571C16.9349 4.6769 14.2672 2.00386 11.2348 2.06688C8.12204 2.07038 5.5995 4.59292 5.596 7.70571V12.6762H4.45248V7.70571ZM6.4854 12.6762V7.70571C6.48834 5.08389 8.61301 2.95923 11.2348 2.95629C13.7884 2.90317 16.0361 5.15515 15.9842 7.70571V12.6762H6.4854ZM20.8429 27.3488C20.8421 28.1078 20.2271 28.7228 19.4682 28.7236H3.00147C2.24256 28.7228 1.62755 28.1078 1.62671 27.3488V14.9404C1.62755 14.1815 2.24256 13.5665 3.00147 13.5656H19.4682C20.2271 13.5665 20.8421 14.1815 20.8429 14.9404V27.3488Z" fill="#A2A2A2"/>
<path d="M11.2348 16.2407C8.13002 16.2809 7.16565 20.3892 9.9007 21.8204V24.7155C9.9007 25.4523 10.498 26.0496 11.2348 26.0496C11.9716 26.0496 12.5689 25.4523 12.5689 24.7155V21.8204C15.304 20.3902 14.3391 16.2799 11.2348 16.2407ZM11.9667 21.1157C11.7936 21.1812 11.6792 21.3471 11.6795 21.5322V24.7162C11.6795 24.9619 11.4804 25.161 11.2348 25.161C10.9892 25.161 10.7901 24.9619 10.7901 24.7162V21.5322C10.7901 21.3473 10.6757 21.1818 10.5029 21.1164C9.57222 20.7641 9.02651 19.7968 9.20621 18.818C9.38592 17.8392 10.2397 17.1289 11.2348 17.1301C13.5168 17.1601 14.0809 20.2799 11.9667 21.1157Z" fill="#A2A2A2"/>
</svg>