<svg width="35" height="35" viewBox="0 0 35 35" fill="none" xmlns="http://www.w3.org/2000/svg">
<path d="M17.5022 0.213379C26.9333 0.213379 34.5791 7.85917 34.5791 17.2903C34.5791 26.7214 26.9333 34.3672 17.5022 34.3672C8.07108 34.3672 0.425293 26.7214 0.425293 17.2903C0.425293 7.85916 8.07108 0.213379 17.5022 0.213379ZM17.5022 31.521C25.3615 31.521 31.7329 25.1495 31.7329 17.2903C31.7329 9.43104 25.3615 3.05955 17.5022 3.05955C9.64296 3.05955 3.27147 9.43104 3.27147 17.2903C3.27147 25.1495 9.64296 31.521 17.5022 31.521Z" fill="#A2A2A2"/>
<path d="M17.5022 5.90576C18.2882 5.90576 18.9253 6.54288 18.9253 7.32883V15.8673H23.1945C23.9805 15.8673 24.6176 16.5044 24.6176 17.2903C24.6176 18.0763 23.9805 18.7134 23.1945 18.7134H17.5022C16.7163 18.7134 16.0792 18.0763 16.0792 17.2903V7.3289C16.0792 6.54295 16.7163 5.90576 17.5022 5.90576Z" fill="#A2A2A2"/>
</svg>
