<svg width="44" height="43" viewBox="0 0 44 43" fill="none" xmlns="http://www.w3.org/2000/svg">
<path d="M41.5861 37.9987H41.75C42.7005 37.9987 43.3064 36.9776 42.8487 36.1428L40.5678 31.9842H40.767C41.2214 31.9842 41.6402 31.7382 41.8615 31.3413C42.0828 30.9445 42.0718 30.4588 41.833 30.0722L37.5693 23.1722C37.3411 22.8027 36.9377 22.5778 36.5033 22.5778C36.0691 22.5778 35.6656 22.8027 35.4374 23.1722L35.2661 23.4494C35.1368 23.1518 25.671 1.36008 25.4076 0.753788C25.2226 0.327791 24.8172 0.039142 24.3541 0.00363524C23.8911 -0.0316209 23.4463 0.191612 23.1985 0.584358L19.2842 6.78734H15.3303C14.8232 6.78734 14.3661 7.09295 14.1723 7.56156C13.8267 8.39718 8.06871 22.3205 7.74681 23.0988C7.22574 22.375 6.13347 22.4126 5.6642 23.1723L1.40055 30.0723C0.884906 30.9068 1.48735 31.9843 2.4665 31.9843H2.66567L0.384804 36.1428C0.171847 36.531 0.179617 37.0029 0.405189 37.3839C0.630761 37.7649 1.04063 37.9986 1.48342 37.9986H1.58418L0.325403 41.043C-0.0153779 41.8673 0.591745 42.7751 1.48351 42.7751H41.75C42.6507 42.7751 43.2587 41.85 42.8994 41.0227L41.5861 37.9987ZM39.6335 35.4923H33.3731L35.2972 31.9842H37.7093L39.6335 35.4923ZM38.5195 29.4778H38.4512H34.5552H34.487L36.5033 26.2149L38.5195 29.4778ZM31.1736 30.0722C30.9347 30.4587 30.9238 30.9443 31.145 31.3412C31.3663 31.7381 31.7851 31.9841 32.2395 31.9841H32.4387L30.1578 36.1427C29.7007 36.9762 30.3044 37.9986 31.2565 37.9986H35.2502V40.2688H22.8698V37.9987H26.8635C27.814 37.9987 28.4199 36.9776 27.9622 36.1428L25.6813 31.9842H25.8805C26.8613 31.9842 27.4612 30.9052 26.9464 30.0722L22.6828 23.1722C22.1943 22.3815 21.0404 22.3798 20.5509 23.1722L16.2872 30.0722C15.7716 30.9067 16.374 31.9842 17.3532 31.9842H17.5523L15.2715 36.1428C14.8144 36.9763 15.4181 37.9987 16.3702 37.9987H20.3638V40.2688H7.98333V37.9987H11.977C12.9275 37.9987 13.5335 36.9776 13.0757 36.1428L10.7949 31.9842H10.9941C11.9749 31.9842 12.5747 30.9052 12.06 30.0722L9.37327 25.7243L13.7566 15.1251L17.4112 18.7703C17.9003 19.2582 18.6919 19.2582 19.1811 18.7702L21.6118 16.3453L24.0927 18.8203C24.5818 19.3082 25.3734 19.3083 25.8626 18.8204L29.1142 15.5771L33.6616 26.0459L31.1736 30.0722ZM19.6005 29.4778L21.6167 26.2149L23.6329 29.4778H23.5647H19.6688H19.6005ZM20.4107 31.9842H22.8227L24.7468 35.4923H18.4866L20.4107 31.9842ZM16.1681 9.29362H19.9752C20.4053 9.29362 20.8053 9.07298 21.0349 8.70922L24.0533 3.92625L28.0413 13.1073L24.9777 16.163L22.4967 13.6879C22.0077 13.2 21.2159 13.2 20.7267 13.6879L18.2959 16.1129L14.7929 12.6188L16.1681 9.29362ZM6.73023 26.2149L8.74651 29.4778H8.67825H4.78229H4.71403L6.73023 26.2149ZM7.93637 31.9842L9.8605 35.4923H3.60004L5.52417 31.9842H7.93637ZM4.2963 37.9987H5.47713V40.2688H3.35767L4.2963 37.9987ZM37.7564 40.2688V37.9987H38.8536L39.8396 40.2688H37.7564Z" fill="#000"/>
</svg>
