<!DOCTYPE svg PUBLIC "-//W3C//DTD SVG 1.1//EN" "http://www.w3.org/Graphics/SVG/1.1/DTD/svg11.dtd">
<!-- Uploaded to: SVG Repo, www.svgrepo.com, Transformed by: SVG Repo Mixer Tools -->
<svg fill="#ffffff" height="256px" width="256px" version="1.1" id="Layer_1" xmlns="http://www.w3.org/2000/svg" xmlns:xlink="http://www.w3.org/1999/xlink" viewBox="0 0 512 512" xml:space="preserve" stroke="#ffffff">
<g id="SVGRepo_bgCarrier" stroke-width="0"/>
<g id="SVGRepo_tracerCarrier" stroke-linecap="round" stroke-linejoin="round"/>
<g id="SVGRepo_iconCarrier"> <g> <g> <polygon points="298.477,480.601 289.698,393.729 222.388,393.729 213.61,480.601 195.602,480.601 195.602,512 210.436,512 301.65,512 316.484,512 316.484,480.601 "/> </g> </g> <g> <g> <path d="M357.707,30.219v-7.565h-31.399v7.723c-27,7.102-46.976,31.717-46.976,60.916c0,0.205,0.004,0.409,0.01,0.617 l0.155,15.384h14.664l9.247,84.805h22.867v15.958h-54.532V31.399h16.311V0h-64.021v31.399h16.311v176.657h-54.532v-15.958h22.787 l9.247-84.805h14.664l0.155-15.413c0.006-0.196,0.009-0.39,0.009-0.588c0-29.42-20.28-54.187-47.592-61.074v-7.565h-31.399v7.723 c-27,7.102-46.976,31.717-46.976,60.916c0,0.205,0.004,0.409,0.01,0.617l0.155,15.384h14.665l9.247,84.805h23.627v47.358h85.932 v123.398h31.399V239.456h85.932v-47.358h23.547l9.247-84.805h14.664l0.155-15.413c0.006-0.196,0.009-0.39,0.009-0.588 C405.299,61.872,385.019,37.105,357.707,30.219z"/> </g> </g> </g>
</svg>