<svg width="256px" height="256px" viewBox="0 0 40 37" fill="none" xmlns="http://www.w3.org/2000/svg">
<path d="M38.5236 16.3952L35.2641 13.4252V3.57716C35.2641 2.95056 34.7561 2.44249 34.1295 2.44249H26.2835C25.6569 2.44249 25.1488 2.95048 25.1488 3.57716V4.20821L21.2124 0.621383C20.4526 -0.0710849 19.3068 -0.0710095 18.5472 0.621307L1.23605 16.3952C0.62746 16.9499 0.426329 17.8044 0.723693 18.5723C1.02113 19.3401 1.74533 19.8362 2.56877 19.8362H5.33359V35.6404C5.33359 36.267 5.84158 36.7751 6.46826 36.7751H15.9569C16.5835 36.7751 17.0915 36.2671 17.0915 35.6404V26.0446H22.6681V35.6405C22.6681 36.2671 23.1761 36.7752 23.8028 36.7752H33.291C33.9176 36.7752 34.4257 36.2672 34.4256 35.6405V19.8363H37.191C38.0144 19.8363 38.7387 19.3401 39.0361 18.5723C39.3334 17.8044 39.1323 16.9499 38.5236 16.3952ZM33.291 17.5669C32.6644 17.5669 32.1563 18.0749 32.1563 18.7016V34.5058H24.9375V24.9099C24.9375 24.2833 24.4295 23.7752 23.8029 23.7752H15.9569C15.3303 23.7752 14.8222 24.2832 14.8222 24.9099V34.5058H7.60286V18.7016C7.60286 18.075 7.09487 17.5669 6.46818 17.5669H3.31949L19.8799 2.47716L25.5195 7.61592C25.8516 7.91855 26.3311 7.99655 26.7421 7.81517C27.1531 7.63355 27.4183 7.22647 27.4183 6.77718V4.71183H32.9949V13.9264C32.9949 14.2456 33.1294 14.55 33.3654 14.7651L36.4402 17.5669H33.291Z" fill="#9c27b0"/>
</svg>
