<svg width="43" height="39" viewBox="0 0 43 39" fill="none" xmlns="http://www.w3.org/2000/svg">
<path d="M39.005 10.2122H36.5166C35.9126 4.77339 31.2886 0.529541 25.6912 0.529541H17.6223C12.025 0.529541 7.40097 4.77339 6.79692 10.2122H4.30876C2.30657 10.2122 0.677734 11.8411 0.677734 13.8433V34.8224C0.677734 36.8245 2.30657 38.4534 4.30876 38.4534H39.005C41.0072 38.4534 42.6361 36.8246 42.6361 34.8224V13.8433C42.636 11.8411 41.0072 10.2122 39.005 10.2122ZM17.6224 2.95026H25.6913C29.9521 2.95026 33.4884 6.11188 34.0775 10.2122H32.443C31.8696 7.0057 29.0603 4.56401 25.6913 4.56401H17.6224C14.2535 4.56401 11.4441 7.0057 10.8707 10.2122H9.23623C9.82537 6.11188 13.3617 2.95026 17.6224 2.95026ZM29.9601 10.2122H13.3536C13.8819 8.3518 15.595 6.98464 17.6224 6.98464H25.6913C27.7188 6.98473 29.4318 8.3518 29.9601 10.2122ZM40.2154 34.8224C40.2154 35.4898 39.6724 36.0327 39.005 36.0327H4.30876C3.64136 36.0327 3.09845 35.4898 3.09845 34.8224V13.8433C3.09845 13.1759 3.64136 12.6329 4.30876 12.6329H39.005C39.6724 12.6329 40.2154 13.1759 40.2154 13.8433V34.8224Z" fill="#4caf50"/>
<path d="M28.9188 20.7017H25.2877V17.0707C25.2877 16.4022 24.7458 15.8604 24.0774 15.8604H19.2361C18.5676 15.8604 18.0257 16.4023 18.0257 17.0707V20.7017H14.3947C13.7263 20.7017 13.1844 21.2436 13.1844 21.912V26.7534C13.1844 27.4218 13.7263 27.9637 14.3947 27.9637H18.0257V31.5947C18.0257 32.2632 18.5677 32.805 19.2361 32.805H24.0774C24.7459 32.805 25.2877 32.2631 25.2877 31.5947V27.9637H28.9188C29.5872 27.9637 30.129 27.4217 30.129 26.7534V21.912C30.1292 21.2436 29.5872 20.7017 28.9188 20.7017ZM27.7084 25.543H24.0774C23.409 25.543 22.8671 26.085 22.8671 26.7534V30.3844H20.4465V26.7534C20.4465 26.085 19.9045 25.543 19.2362 25.543H15.6051V23.1224H19.2362C19.9046 23.1224 20.4465 22.5805 20.4465 21.9121V18.2811H22.8671V21.9121C22.8671 22.5806 23.409 23.1224 24.0774 23.1224H27.7084V25.543Z" fill="#4caf50"/>
</svg>
