<?xml version="1.0" encoding="UTF-8"?>
<svg id="Camada_1" data-name="Camada 1" xmlns="http://www.w3.org/2000/svg" viewBox="0 0 787.47 241.79">
  <defs>
    <style>
      .cls-1, .cls-2, .cls-3 {
        fill: #f5f5f5;
      }

      .cls-2 {
        stroke: #f5f5f5;
        stroke-miterlimit: 10;
      }

      .cls-3 {
        font-family: Poppins-Bold, Poppins;
        font-size: 39.38px;
        letter-spacing: -.04em;
      }
    </style>
  </defs>
  <path class="cls-2" d="M.5,45.2C.5,29.18,13.48,16.2,29.5,16.2H123.97c41.07,0,60.25,22.42,60.25,52.14,0,18.64-9.73,35.66-28.1,41.61,18.37,8.38,28.1,22.15,28.1,43.5,0,29.72-19.18,51.87-60.25,51.87H29.5c-16.02,0-29-12.98-29-29V45.2Zm108.07,46.65c8.65,0,15.67-4.05,15.67-13.51,0-10-7.02-13.51-15.67-13.51H58.59v27.02h49.98Zm0,64.84c8.65,0,15.67-4.05,15.67-14.05,0-9.19-7.02-12.97-15.67-12.97H58.59v27.02h49.98Z"/>
  <path class="cls-2" d="M284.72,115.62c-18.1,0-30.53,12.16-30.53,34.58v40.35c0,8.15-6.61,14.76-14.76,14.76h-29.64c-8.15,0-14.76-6.61-14.76-14.76V67.43c0-8.15,6.61-14.76,14.76-14.76h24.78c8.15,0,14.76,6.61,14.76,14.76v17.75c0,.69,.56,1.26,1.26,1.26h0c.54,0,1.02-.35,1.19-.86,5.56-16.64,14.87-27.7,27.6-33.1,9.71-4.12,20.48,3.07,20.48,13.62v34.76c0,8.22-6.71,14.79-14.93,14.76-.07,0-.13,0-.2,0Z"/>
  <path class="cls-2" d="M444.6,45.92V175.6c0,16.41-13.31,29.72-29.72,29.72h0c-16.41,0-29.72-13.31-29.72-29.72V45.92c0-16.41,13.31-29.72,29.72-29.72h0c16.41,0,29.72,13.31,29.72,29.72Z"/>
  <path class="cls-2" d="M488.16,16.2h0c16.41,0,29.72,13.31,29.72,29.72v27.07c0,.72,.58,1.29,1.29,1.29h0c.52,0,.99-.32,1.19-.8,6.22-14.95,22.99-24.86,42.63-24.86,31.07,0,52.95,16.75,52.95,65.11v61.87c0,16.41-13.31,29.72-29.72,29.72h0c-16.41,0-29.72-13.31-29.72-29.72v-48.36c0-17.56-7.29-25.67-19.18-25.67s-19.45,8.1-19.45,25.4v48.63c0,16.41-13.31,29.72-29.72,29.72h0c-16.41,0-29.72-13.31-29.72-29.72V45.92c0-16.41,13.31-29.72,29.72-29.72Z"/>
  <path class="cls-2" d="M624.6,128.86c0-48.36,34.04-80.24,81.32-80.24s81.05,31.88,81.05,80.24-34.04,80.51-81.05,80.51c-52.68,0-81.32-33.5-81.32-80.51Zm107.53,0c0-17.83-11.62-27.29-26.21-27.29s-26.48,9.73-26.48,27.29,11.62,27.56,26.48,27.56,26.21-9.46,26.21-27.56Z"/>
  <path class="cls-2" d="M371.31,78.34v97.26c0,16.41-13.31,29.72-29.72,29.72h0c-16.41,0-29.72-13.31-29.72-29.72V78.34c0-16.41,13.31-29.72,29.72-29.72h0c16.41,0,29.72,13.31,29.72,29.72Z"/>
  <path class="cls-1" d="M786.97,234.69h0c0,3.92-3.18,7.1-7.1,7.1H7.6c-3.92,0-7.1-3.18-7.1-7.1H.5c0-3.92,3.18-7.1,7.1-7.1H779.87c3.92,0,7.1,3.18,7.1,7.1Z"/>
  <path class="cls-1" d="M371.31,23.3h0c0,3.92-3.18,7.1-7.1,7.1h-45.23c-3.92,0-7.1-3.18-7.1-7.1h0c0-3.92,3.18-7.1,7.1-7.1h45.23c3.92,0,7.1,3.18,7.1,7.1Z"/>
  <text class="cls-3" transform="translate(570.02 33.57)"><tspan x="0" y="0">cupons</tspan></text>
</svg>