<svg width="251" height="251" viewBox="0 0 251 251" fill="none" xmlns="http://www.w3.org/2000/svg">
<path d="M125.881 250.14C194.806 250.14 250.882 194.066 250.882 125.141C250.882 56.2154 194.806 0.139893 125.881 0.139893C124.607 0.139893 123.572 1.17424 123.572 2.44877C123.572 3.72484 124.607 4.75771 125.881 4.75771C192.26 4.75771 246.264 58.7613 246.264 125.141C246.264 191.518 192.26 245.522 125.881 245.522C59.5034 245.522 5.49965 191.518 5.49965 125.141C5.49965 123.865 4.46532 122.832 3.19085 122.832C1.91634 122.832 0.881836 123.865 0.881836 125.141C0.881836 194.066 56.9558 250.14 125.881 250.14Z" fill="#07BB02"/>
</svg>
