<svg width="33" height="33" viewBox="0 0 33 33" fill="#ffffff" xmlns="http://www.w3.org/2000/svg">
<path d="M16.4937 32.4068C12.69 32.4068 9.00072 31.0536 6.10554 28.5964C5.42575 28.0199 4.78807 27.3806 4.21037 26.6966C1.7719 23.8063 0.429199 20.1292 0.429199 16.3423C0.429199 12.0513 2.10016 8.01714 5.13433 4.98296C8.16851 1.94879 12.2026 0.277832 16.4937 0.277832C20.7847 0.277832 24.8188 1.94879 27.853 4.98296C30.8872 8.01714 32.5581 12.0513 32.5581 16.3423C32.5581 20.1293 31.2154 23.8063 28.7773 26.6962C28.1993 27.3806 27.5616 28.0199 26.8816 28.5966C23.9866 31.0536 20.2974 32.4068 16.4937 32.4068ZM16.4937 2.28589C8.74294 2.28589 2.43726 8.59157 2.43726 16.3423C2.43726 19.6559 3.61191 22.8731 5.74485 25.4014C6.25063 26.0002 6.80918 26.5601 7.40469 27.0653C9.93761 29.2149 13.1654 30.3987 16.4937 30.3987C19.822 30.3987 23.0497 29.2149 25.5825 27.0654C26.1782 26.5601 26.7367 26.0001 27.2428 25.4009C29.3754 22.8732 30.5501 19.656 30.5501 16.3423C30.5501 8.59157 24.2444 2.28589 16.4937 2.28589Z" fill="#ffffff"/>
<path d="M16.4937 16.3423C13.1719 16.3423 10.4695 13.6399 10.4695 10.3182C10.4695 6.99638 13.1719 4.29395 16.4937 4.29395C19.8155 4.29395 22.5179 6.99638 22.5179 10.3182C22.5179 13.6399 19.8155 16.3423 16.4937 16.3423ZM16.4937 6.30204C14.2791 6.30204 12.4775 8.10363 12.4775 10.3182C12.4775 12.5327 14.2791 14.3343 16.4937 14.3343C18.7081 14.3343 20.5097 12.5327 20.5097 10.3182C20.5097 8.10363 18.7081 6.30204 16.4937 6.30204Z" fill="#ffffff"/>
<path d="M26.2329 28.8351C26.1519 28.8351 26.0697 28.8252 25.9876 28.8047C25.4499 28.6697 25.1233 28.1243 25.2583 27.5865C25.4385 26.8684 25.5299 26.1255 25.5299 25.3785C25.5299 20.466 21.536 16.4134 16.6259 16.3429L16.4937 16.3422L16.3615 16.3429C11.4513 16.4134 7.45738 20.466 7.45738 25.3785C7.45738 26.1255 7.54881 26.8684 7.72905 27.5865C7.86401 28.1243 7.53746 28.6697 6.99968 28.8047C6.46188 28.9397 5.91638 28.6132 5.78143 28.0753C5.56104 27.1975 5.44934 26.2902 5.44934 25.3785C5.44934 22.4557 6.57993 19.7006 8.63286 17.6205C10.6838 15.5425 13.4199 14.3757 16.3371 14.3349C16.3419 14.3349 16.3465 14.3349 16.3512 14.3349L16.4937 14.3342L16.6361 14.3348C16.6408 14.3348 16.6455 14.3348 16.6502 14.3349C19.5674 14.3756 22.3035 15.5425 24.3545 17.6204C26.4074 19.7006 27.538 22.4557 27.538 25.3785C27.538 26.2902 27.4263 27.1975 27.2059 28.0753C27.0915 28.531 26.6824 28.8351 26.2329 28.8351Z" fill="#ffffff"/>
</svg>
